<?xml version="1.0" encoding="iso-8859-1"?>
<!-- Generator: Adobe Illustrator 19.0.0, SVG Export Plug-In . SVG Version: 6.00 Build 0)  -->
<svg xmlns="http://www.w3.org/2000/svg" xmlns:xlink="http://www.w3.org/1999/xlink" version="1.1" id="Layer_1" x="0px" y="0px" viewBox="0 0 512 512" style="enable-background:new 0 0 512 512;" xml:space="preserve" width="512" height="512">
<g>
	
		<rect x="188.916" y="353.521" transform="matrix(0.8944 0.4472 -0.4472 0.8944 187.1274 -52.1022)" style="fill:#9AFCFD;" width="30.003" height="33.541"/>
	
		<rect x="158.916" y="413.521" transform="matrix(0.8944 0.4472 -0.4472 0.8944 210.793 -32.3514)" style="fill:#9AFCFD;" width="30.003" height="33.541"/>
	
		<rect x="128.916" y="473.521" transform="matrix(0.8944 0.4472 -0.4472 0.8944 234.4586 -12.6007)" style="fill:#9AFCFD;" width="30.003" height="33.541"/>
	
		<rect x="98.916" y="353.521" transform="matrix(0.8944 0.4472 -0.4472 0.8944 177.6258 -11.853)" style="fill:#9AFCFD;" width="30.003" height="33.541"/>
	
		<rect x="68.916" y="413.521" transform="matrix(0.8944 0.4472 -0.4472 0.8944 201.2914 7.8978)" style="fill:#9AFCFD;" width="30.003" height="33.541"/>
	
		<rect x="38.916" y="473.521" transform="matrix(0.8944 0.4472 -0.4472 0.8944 224.9571 27.6486)" style="fill:#9AFCFD;" width="30.003" height="33.541"/>
	
		<rect x="278.916" y="353.521" transform="matrix(0.8944 0.4472 -0.4472 0.8944 196.6289 -92.3514)" style="fill:#74E3F7;" width="30.003" height="33.541"/>
	
		<rect x="248.916" y="413.521" transform="matrix(0.8944 0.4472 -0.4472 0.8944 220.2946 -72.6007)" style="fill:#74E3F7;" width="30.003" height="33.541"/>
	
		<rect x="218.916" y="473.521" transform="matrix(0.8944 0.4472 -0.4472 0.8944 243.9602 -52.8499)" style="fill:#74E3F7;" width="30.003" height="33.541"/>
	
		<rect x="368.916" y="353.521" transform="matrix(0.8944 0.4472 -0.4472 0.8944 206.1305 -132.6007)" style="fill:#74E3F7;" width="30.003" height="33.541"/>
	
		<rect x="338.916" y="413.521" transform="matrix(0.8944 0.4472 -0.4472 0.8944 229.7961 -112.8499)" style="fill:#74E3F7;" width="30.003" height="33.541"/>
	
		<rect x="308.916" y="473.521" transform="matrix(0.8944 0.4472 -0.4472 0.8944 253.4617 -93.0991)" style="fill:#74E3F7;" width="30.003" height="33.541"/>
	<path style="fill:#537983;" d="M391,60c-18.6,0-36.301,4.799-51.899,12.299C319.9,41.1,290.2,17.999,256,6.899   C241.601,2.399,226.601,0,211,0C128.2,0,61,68.2,61,151v1.5c-34.2,6.899-61,38.2-61,74.5c0,41.4,34.6,75,76,75h315   c66.301,0,121-54.701,121-121C512,114.699,457.301,60,391,60z"/>
	<path style="fill:#3E5959;" d="M512,181c0,66.299-54.699,121-121,121H256V6.899c34.2,11.1,63.9,34.2,83.101,65.4   C354.699,64.799,372.4,60,391,60C457.301,60,512,114.699,512,181z"/>
</g>















</svg>
