<?xml version="1.0" encoding="iso-8859-1"?>
<!-- Generator: Adobe Illustrator 19.0.0, SVG Export Plug-In . SVG Version: 6.00 Build 0)  -->
<svg xmlns="http://www.w3.org/2000/svg" xmlns:xlink="http://www.w3.org/1999/xlink" version="1.1" id="Layer_1" x="0px" y="0px" viewBox="0 0 512.3 512.3" style="enable-background:new 0 0 512.3 512.3;" xml:space="preserve" width="512" height="512">
<g>
	<g>
		<polygon style="fill:#EFE2DD;" points="422.15,180 422.15,422 90.15,422 90.15,180 256.15,30   "/>
		<polygon style="fill:#CDBFBA;" points="422.15,180 422.15,422 256.15,422 256.15,30   "/>
		<g>
			<rect x="180.15" y="240" style="fill:#537983;" width="152" height="167"/>
			<rect x="256.15" y="240" style="fill:#3E5959;" width="76" height="167"/>
		</g>
		<g>
			<g>
				<polygon style="fill:#FF9100;" points="512.15,240 469.851,282.299 256.15,84.899 42.449,282.299 0.15,240 256.15,0     "/>
			</g>
		</g>
		<polygon style="fill:#FF641A;" points="512.15,240 469.851,282.299 256.15,84.899 256.15,0   "/>
	</g>
	<g>
		<g>
			<path d="M145.594,452.293c-33.618,0-60.103-9.272-84.888-17.944c-16.157-5.654-31.421-10.986-47.886-13.579l4.658-29.648     c19.16,3.018,36.431,9.067,53.13,14.912c46.289,16.157,91.015,31.465,178.832-12.451c99.126-49.57,154.281-30.645,202.094-13.931     c16.172,5.654,31.45,10.986,47.944,13.579l-4.658,29.648c-19.175-3.018-36.46-9.067-53.188-14.912     c-46.245-16.172-90.956-31.45-178.773,12.451C215.105,444.295,176.781,452.278,145.594,452.293z"/>
		</g>
	</g>
	
		<rect x="474.648" y="4.938" transform="matrix(0.8944 0.4472 -0.4472 0.8944 61.4023 -216.6863)" style="fill:#9BFCFF;" width="30.003" height="33.541"/>
	
		<rect x="444.648" y="64.938" transform="matrix(0.8944 0.4472 -0.4472 0.8944 85.0679 -196.9355)" style="fill:#9BFCFF;" width="30.003" height="33.541"/>
	
		<rect x="399.648" y="4.938" transform="matrix(0.8944 0.4472 -0.4472 0.8944 53.4843 -183.1453)" style="fill:#9BFCFF;" width="30.003" height="33.541"/>
	
		<rect x="369.648" y="64.938" transform="matrix(0.8944 0.4472 -0.4472 0.8944 77.15 -163.3945)" style="fill:#9BFCFF;" width="30.003" height="33.541"/>
	
		<rect x="112.648" y="4.938" transform="matrix(0.8944 0.4472 -0.4472 0.8944 23.1849 -54.795)" style="fill:#25D9F8;" width="30.003" height="33.541"/>
	
		<rect x="82.648" y="64.938" transform="matrix(0.8944 0.4472 -0.4472 0.8944 46.8506 -35.0442)" style="fill:#25D9F8;" width="30.003" height="33.541"/>
	
		<rect x="37.648" y="4.938" transform="matrix(0.8944 0.4472 -0.4472 0.8944 15.267 -21.254)" style="fill:#25D9F8;" width="30.003" height="33.541"/>
	
		<rect x="7.648" y="64.938" transform="matrix(0.8944 0.4472 -0.4472 0.8944 38.9326 -1.5032)" style="fill:#25D9F8;" width="30.003" height="33.541"/>
	<path style="fill:#25D9F8;" d="M512.15,365.3v59.099l-31.5-0.298l-224.5,30.298L67.65,479.9l-67.5-60.601l0.3-60.899   c11.999,2.699,22.8,0.899,70.199,17.699c46.201,16.201,91,31.5,178.902-12.599c2.399-1.199,4.499-2.1,6.599-2.999   c94.799-45.601,148.9-27.301,195.399-10.801C497.15,365.6,498.349,362.3,512.15,365.3z"/>
	<path style="fill:#28CBF7;" d="M512.15,365.3v59.099l-31.5-0.298l-224.5,30.298V360.5c94.799-45.601,148.9-27.301,195.399-10.801   C497.15,365.6,498.349,362.3,512.15,365.3z"/>
	<path style="fill:#9BFCFF;" d="M512.15,424.399c0,0,0,57.301,0,61.201c-14.099-3.001-21.899-0.601-70.499-17.701   c-46.201-16.199-91-31.5-178.902,12.601c-2.399,1.199-4.499,2.098-6.599,2.999C211.45,504.8,175.351,512.3,145.649,512.3   c-33.6,0-60.298-9.3-84.899-18.001C15.15,478.4,13.651,481.7,0.15,478.7v-59.401c26.4,1.5,48.6,9,70.499,16.8   c46.201,16.201,91,31.5,178.902-12.599c2.399-1.199,4.499-2.1,6.599-2.999c94.799-45.601,148.9-27.301,195.399-10.801   C471.949,416.6,490.849,423.199,512.15,424.399z"/>
	<path style="fill:#76E2F8;" d="M512.15,424.399c0,0,0,57.301,0,61.201c-14.099-3.001-21.899-0.601-70.499-17.701   c-46.201-16.199-91-31.5-178.902,12.601c-2.399,1.199-4.499,2.098-6.599,2.999V420.5c94.799-45.601,148.9-27.301,195.399-10.801   C471.949,416.6,490.849,423.199,512.15,424.399z"/>
</g>















</svg>
