<?xml version="1.0" encoding="iso-8859-1"?>
<!-- Generator: Adobe Illustrator 19.0.0, SVG Export Plug-In . SVG Version: 6.00 Build 0)  -->
<svg xmlns="http://www.w3.org/2000/svg" xmlns:xlink="http://www.w3.org/1999/xlink" version="1.1" id="Layer_1" x="0px" y="0px" viewBox="0 0 511.985 511.985" style="enable-background:new 0 0 511.985 511.985;" xml:space="preserve" width="512" height="512">
<g>
	<g>
		<path style="fill:#CDBFBA;" d="M255.158,511.985l-1.831-30h1.831c18.179,0,36.255-2.183,53.76-6.489l7.178,29.121    C296.247,509.51,275.739,511.985,255.158,511.985z"/>
		<path style="fill:#EFE2DD;" d="M192.301,504.134c-19.863-5.054-39.126-12.539-57.231-22.236l14.18-26.455    c15.967,8.569,32.944,15.161,50.464,19.629L192.301,504.134z"/>
		<path style="fill:#CDBFBA;" d="M373.517,482.82l-13.975-26.543c15.996-8.423,30.996-18.779,44.59-30.82l19.893,22.471    C408.629,461.551,391.637,473.299,373.517,482.82z"/>
		<path style="fill:#EFE2DD;" d="M83.87,446.639c-15.249-13.696-28.857-29.224-40.43-46.187l24.785-16.904    c10.21,14.956,23.222,28.682,36.684,40.767L83.87,446.639z"/>
		<path style="fill:#CDBFBA;" d="M465.777,402.049l-25.639-17.109c10.327-14.883,19.853-31.996,26.313-48.886l28.008,10.723    C487.149,365.922,477.496,385.174,465.777,402.049z"/>
		<path style="fill:#EFE2DD;" d="M15.168,344.945c-7.178-19.233-12.012-39.331-14.341-59.736l29.795-3.428    c2.065,18.003,6.328,35.728,12.642,52.676L15.168,344.945z"/>
		<path style="fill:#EFE2DD;" d="M30.93,227.611l-29.766-3.75c2.578-20.405,7.632-40.444,15.029-59.575l27.979,10.84    C37.654,191.972,33.201,209.623,30.93,227.611z"/>
		<path style="fill:#CDBFBA;" d="M466.744,176.708c-6.387-16.904-15.839-33.062-26.137-48.003l25.697-17.021    c11.675,16.934,21.255,35.244,28.506,54.419L466.744,176.708z"/>
		<path style="fill:#EFE2DD;" d="M69.661,127.343l-24.58-17.197c11.748-16.802,25.518-33.183,40.928-46.718l20.805,22.529    C93.205,97.91,80.046,112.504,69.661,127.343z"/>
		<path style="fill:#CDBFBA;" d="M404.762,88.07c-13.535-12.085-28.477-23.5-44.429-31.952l14.063-26.514    c18.076,9.595,35.01,21.401,50.347,35.083L404.762,88.07z"/>
		<path style="fill:#EFE2DD;" d="M151.535,55.313l-13.887-26.602c18.208-9.507,37.559-16.772,57.51-21.592l7.061,29.15    C184.625,40.532,167.575,46.934,151.535,55.313z"/>
		<path style="fill:#CDBFBA;" d="M309.752,36.68c-17.49-4.38-35.566-6.621-53.716-6.68l0.088-30    c20.566,0.059,41.074,2.607,60.923,7.588L309.752,36.68z"/>
		<path style="fill:#9BFCFF;" d="M453.258,255.985c0,108.6-89.5,198.1-198.1,198.1c-52.2,0-99.6-20.7-135-54l-23.8-261.7    c36-48.001,94.3-80.501,158.8-80.501c64.799,0,122.401,32.5,158.401,81.1l-11.7,54.9l51.099,59.399    C452.958,254.185,453.258,255.084,453.258,255.985z"/>
		<path style="fill:#76E2F8;" d="M453.258,255.985c0,108.6-89.5,198.1-198.1,198.1v-396.2c64.799,0,122.401,32.5,158.401,81.1    l-11.7,54.9l51.099,59.399C452.958,254.185,453.258,255.084,453.258,255.985z"/>
		<path style="fill:#61D7A8;" d="M166.535,338.866c1.011-4.336,1.831-6.489,1.655-7.207c7.657,1.426,24.064,9.141,38.745,0.176    c15.361-9.386,25.732-38.86,2.52-56.177c0-31.511-40.104-34.878-69.375-20.215c-3.545,1.772-7.192,3.589-10.181,4.541    c-3.71-5.473-8.276-15.834-12.1-22.999h22.178c17.697,0,23.956-12.218,27.246-13.183c8.789,0,16.157-4.453,19.688-11.909    c6.768-14.253-3.691-34.438-8.057-39.8c-16.551-20.237-17.388-32.769-52.485-32.769c-12.12,0-22.447-0.313-29.995-0.807    c-24.518,32.845-39.223,73.422-39.223,117.468c0,56.404,24.954,108.206,63.067,144.152    C151.883,401.399,155.444,386.411,166.535,338.866z"/>
		<g>
			<path style="fill:#61D7A8;" d="M452.958,253.285c-13.2,3.602-29.2,5.402-41.499,6.901c-7.5,0.899-17.401,2.1-20.101,2.999     c-6.599,3.3-25.899,12.301-32.199,16.8v10.501c0,14.099-12.2,21.299-20.599,26.1c-1.802,0.899-4.801,2.699-6.601,3.9     c-0.3,58.499-11.4,73.299-21,78.699c-6.899,3.9-15,3.9-21.899-0.3c-8.699-5.4-14.2-16.199-13.9-26.1v-12.299     c-0.601-1.201-6.5-7.901-10.4-12.1c-3.001-3.001-6.301-6.601-9.6-10.201c-10.8-12.299-21.301-27.9-21.301-47.699     c0-17.1,12.9-22.202,21.301-24.6c1.5-0.3,2.701-0.601,3.9-0.901c19.2-4.2,17.401-10.8,20.7-13.799     c3.3-5.7,9.901-16.501,23.699-16.501c11.1,0,17.701,4.801,22.5,8.101c19.801,14.399,40.501-1.8,35.4-9.3     c0,0.601-2.1,1.5-3.6,2.401c-6.899,3.3-23.099,11.699-37.8-3.001c-9.3-9.3-16.5-9.3-27.9-9c-10.8-0.3-27.599-0.3-36.899-9.3     c-4.501-4.2-7.5-10.199-7.5-19.501c0-5.4-2.1-10.499-3.6-12.9c-4.801-1.199-8.401-4.199-12.001-6.899c-3.3-2.701-7.2-6-10.499-6     c-3.6,0-14.7,0-40.499-17.1c-7.8-5.099-11.4-14.399-9.302-23.399c4.501-17.401,19.501-15.601,22.8-16.8h40.801     c7.2,0,13.499,0,19.799,0.301c17.999,0.599,34.501,3.3,66.599,14.099c38.701,12.9,63.602,12.6,77.1,12.6h14.702     C437.258,171.086,452.357,210.685,452.958,253.285z"/>
			<path style="fill:#00AB94;" d="M452.958,253.285c-13.2,3.602-29.2,5.402-41.499,6.901c-7.5,0.899-17.401,2.1-20.101,2.999     c-6.599,3.3-25.899,12.301-32.199,16.8v10.501c0,14.099-12.2,21.299-20.599,26.1c-1.802,0.899-4.801,2.699-6.601,3.9     c-0.3,58.499-11.4,73.299-21,78.699c-6.899,3.9-15,3.9-21.899-0.3c-8.699-5.4-14.2-16.199-13.9-26.1v-12.299     c-0.601-1.201-6.5-7.901-10.4-12.1c-3.001-3.001-6.301-6.601-9.6-10.201v-72.299c1.5-0.3,2.701-0.601,3.9-0.901     c19.2-4.2,17.401-10.8,20.7-13.799c3.3-5.7,9.901-16.501,23.699-16.501c11.1,0,17.701,4.801,22.5,8.101     c19.801,14.399,40.501-1.8,35.4-9.3c0,0.601-2.1,1.5-3.6,2.401c-6.899,3.3-23.099,11.699-37.8-3.001c-9.3-9.3-16.5-9.3-27.9-9     c-10.8-0.3-27.599-0.3-36.899-9.3V112.286c17.999,0.599,34.501,3.3,66.599,14.099c38.701,12.9,63.602,12.6,77.1,12.6h14.702     C437.258,171.086,452.357,210.685,452.958,253.285z"/>
		</g>
	</g>
	<path style="fill:#CDBFBA;" d="M509.253,287.157l-29.766-3.633c1.099-9.038,1.655-18.237,1.67-27.568   c0-8.994-0.542-17.886-1.567-26.631l29.795-3.516c1.172,9.917,1.772,19.98,1.772,30.176   C511.143,266.547,510.499,276.947,509.253,287.157z"/>
</g>















</svg>
